<?xml version="1.0" encoding="utf-8"?>
<!-- Generator: Adobe Illustrator 27.0.0, SVG Export Plug-In . SVG Version: 6.00 Build 0)  -->
<svg class="logo" version="1.1" id="Layer_1" xmlns="http://www.w3.org/2000/svg" xmlns:xlink="http://www.w3.org/1999/xlink" x="0px" y="0px"
	 viewBox="0 0 1000 1000" style="enable-background:new 0 0 1000 1000;" xml:space="preserve">
<style type="text/css">
	.st0{fill:#D4A54C;}
</style>
<g>
	<path class="st0" d="M576.7,918.11c-0.79,0.06-1.57,0.12-2.36,0.19c-12.25,1.2-24.48,2.64-36.76,3.54
		c-28.19,2.06-56.25,0.83-84.29-3c-18.35-2.5-36.44-6.11-54.29-10.77c-16.88-4.4-33.37-10.18-49.49-16.95
		c-25.65-10.77-50.25-23.45-73.38-39.02c-23.98-16.14-46.21-34.32-66.47-54.94c-27.93-28.42-51.72-59.95-70.69-95
		c-13.39-24.73-24.43-50.51-32.37-77.55c-0.51-1.72-1.54-3.29-2.33-4.93c0.06-0.15,0.21-0.32,0.18-0.45
		c-0.06-0.31-0.21-0.6-0.32-0.89c0.02-0.65,0.21-1.35,0.03-1.95c-3-10.04-5.31-20.24-7.57-30.48c-1.43-6.47-1.56-13.25-4.27-19.44
		c0.38-1.11,0.24-2.18-0.24-3.22c-0.89-9.25-1.75-18.51-2.68-27.75c-2.38-23.62-2.08-47.22-0.11-70.88
		c1.25-14.96,3.15-29.83,5.99-44.53c4.17-21.55,10.02-42.68,17.45-63.36c12.65-35.22,29.69-68.23,50.98-98.94
		c14.52-20.95,31.23-40.2,49.36-58.16c29.75-29.49,63.09-54.19,100.14-73.67c22.97-12.08,47-21.76,71.81-29.57
		c15.1-4.76,30.65-7.6,45.81-12.01c0.41-0.04,0.82-0.08,1.24-0.12c1.32,0.01,2.69,0.28,3.94,0c13.21-2.94,26.65-4.1,40.1-5.28
		c4.62-0.4,9.2-1.2,13.8-1.81c0.74,0.47,1.49,0.43,2.24,0.03c2.27,0.78,4.62,0.4,6.92,0.32c26.33-0.89,52.44,1.49,78.47,5.17
		c3.28,0.46,6.38,1.94,9.78,1.71c0.66,0,1.32-0.01,1.98-0.01c8.93,3.28,18.39,4.47,27.55,6.86c20.31,5.3,40.11,12,59.37,20.26
		c44.12,18.91,84,44.5,119.28,77.09c39.93,36.89,70.53,80.44,91.81,130.45c9.64,22.66,17.27,46.02,22.72,70.07
		c0.51,2.25,1.44,4.4,2.18,6.59c-0.38,1.65-0.43,3.3,0.05,4.94c-3.19,6.8-8.54,9.37-15.96,8.84c-4.22-0.3-8.53-0.58-12.76,0.33
		c-5.74-0.73-11.48-0.53-17.23-0.15c-8.15-2.33-9.47-9.48-11.36-16.17c-7.6-26.83-18.49-52.3-31.92-76.68
		c-11.34-20.58-24.63-39.88-39.75-57.88c-33.76-40.18-74.05-72.05-121.46-94.73c-21.65-10.36-44.15-18.59-67.5-23.99
		c-37.68-8.7-75.83-12.49-114.53-8.54c-13.23,1.35-26.55,1.93-39.41,5.74c-0.74,0.09-1.47,0.18-2.21,0.27
		c-7.64,0.7-14.98,2.87-22.34,4.81c-25.63,6.73-50.31,16.13-73.78,28.4c-30.81,16.11-59.03,35.98-84.41,59.87
		c-35.07,33.01-62.89,71.23-83.1,114.92c-10.97,23.73-19.28,48.4-24.97,73.98c-7.24,32.57-10.4,65.48-8.55,98.77
		c1.66,29.99,6.65,59.44,15.39,88.3c14.72,48.6,38.26,92.35,70.98,131.1c24.11,28.54,51.76,53.15,83.36,73.27
		c6.74,4.29,13.63,8.29,20.43,12.48c4.58,2.82,5.74,2.21,5.75-3.2c0.06-36.51,0.08-73.03,0.08-109.54
		c-0.02-97.88-0.06-195.75-0.08-293.63c0-2-0.17-4.02,0.03-6c0.46-4.72-1.34-6.39-6.25-6.34c-22.85,0.23-45.7-0.03-68.54,0.18
		c-8.53,0.08-15.45,3.72-19.6,11.56c-3.92,7.41-3.46,14.88,0.77,21.87c4.12,6.8,10.84,9.52,18.56,9.92c2.83,0.15,5.67,0.03,8.5,0.07
		c5.73,0.09,6.85,1.21,5.85,6.94c-2.62,15.03-9.96,27.11-23.21,35.09c-7.84,4.72-16.39,7.26-25.64,7.2
		c-12.17-0.09-24.35-0.1-36.52-0.15l-0.26-0.26c0.02-46.18,0.04-92.36,0.09-138.55c0-2.81-0.25-5.67,0.83-8.4
		c2.6-6.54,6.72-9.16,15-9.19c27.84-0.1,55.68-0.19,83.52-0.2c68.52-0.03,137.04-0.03,205.56,0c59.02,0.03,118.03,0.15,177.05,0.17
		c45.18,0.02,90.35-0.09,135.53-0.07c10.46,0.01,15.47,4.99,15.46,15.2c-0.04,45.35-0.17,90.69-0.13,136.04
		c0,4.13-1.28,5.53-5.43,5.44c-10.83-0.22-21.68,0.12-32.52-0.07c-23.44-0.42-43.73-17.93-47.6-40.88c-1.2-7.12-0.28-8.2,6.81-8.33
		c6.11-0.11,12.31,0.7,18.02-2.6c9.07-5.24,13.03-14.09,10.74-24.58c-1.84-8.44-10.68-16.03-20.01-16.16
		c-20.84-0.3-41.68-0.13-62.52-0.2c-2.7-0.01-4.07,1.1-4.05,3.82c0.2,32.51,0.4,65.02,0.61,97.53c0,0.32,0.2,0.63,0.3,0.94
		c0,0.65,0,1.31,0,1.96c-0.98,11.76-0.4,23.55-0.24,35.31c0.2,15.13-0.08,30.13-4.35,44.79c-0.08,0.46-0.15,0.93-0.23,1.39
		c-5.15,11.74-10.57,23.32-19.27,32.98c-2.12,2.35-4.1,4.86-6.46,6.95c-2.72,2.42-2.26,4.18,0.11,6.57
		c20.19,20.43,30.09,45.02,29.88,73.79c-0.25,34.18-0.23,68.36-0.33,102.54c-0.01,2,0.01,4,0,6c-0.02,3.4,1.28,4.17,4.28,2.4
		c14.77-8.7,29.17-17.94,42.79-28.38c40.31-30.89,72.91-68.52,98.12-112.54c7.43-12.96,13.93-26.44,19.68-40.23
		c2.32-5.56,6.19-8.03,11.88-8.1c10.17-0.11,20.34-0.3,30.5-0.1c9.99,0.2,14.38,6.7,11.03,16.08
		c-11.41,31.97-27.48,61.56-46.45,89.59c-26.17,38.67-58.03,72.03-95.37,100.06c-27.64,20.75-57.42,37.8-89.31,51.26
		c-23.07,9.73-46.81,17.21-71.1,22.99C594.32,914.65,585.3,915.41,576.7,918.11z M636.83,601.13c0.23-0.29,0.24-0.59,0.03-0.89
		c0.97-7.47,0.37-14.96,0.38-22.44c0.06-52.69,0.04-105.38,0.01-158.07c-0.01-9.18-4.82-14.66-13.28-14.7
		c-25.18-0.12-50.36,0.01-75.54-0.07c-3.26-0.01-4.47,1.27-4.46,4.41c0.04,25.51,0.03,51.02,0.02,76.53c0,2.38,0.77,3.83,3.36,4.76
		c18.85,6.75,32.18,24.91,31.99,44.61c-0.19,20.36-10.94,38.29-31.42,46.01c-2.83,1.07-3.97,2.61-3.96,5.48
		c0.03,35.02,0.03,70.03-0.01,105.05c0,2.22,0.59,3.59,2.82,4.63c3.6,1.68,7.07,3.62,10.31,6.04c9.49,7.1,14.89,16.8,18.41,27.8
		c0.1,0.68,0.2,1.37,0.3,2.05c0.21,7.65,0.79,15.4-1.54,22.79c-4.37,13.88-13.14,24.07-26.6,30.01c-2.25,0.99-3.74,2.29-3.73,5.21
		c0.1,24.5,0.08,49,0.03,73.51c-0.01,2.95,0.97,4.21,4.1,4.05c8.49-0.42,16.91-1.38,25.27-2.84c0.99,0.41,1.98,0.37,2.96-0.05
		c5.47,0.6,10.74-0.25,15.87-2.14c1.38,0.63,2.73,0.41,4.06-0.15c8.27,0.51,16.13-1.91,24.08-3.54c2.21-0.45,4.48-1,6.54-2.32
		c7.8-5.02,10.49-12.27,10.47-21.25c-0.09-63.51,0-127.02-0.06-190.54c-0.01-10.98,0.62-21.97-0.41-32.94
		c0.02-0.98,0.03-1.96,0.05-2.94C637.51,606.5,637.52,603.81,636.83,601.13z M469.89,600.25c0-0.65,0.01-1.3,0.01-1.95
		c2.36-13.36,1.65-14.22-11.48-14.07c-1.65,0.02-3.31-0.01-4.96-0.06c-2.61-0.08-5.36,0.36-7.46-1.81
		c0.87-8.78,0.35-17.59,0.36-26.39c0.01-22.27-0.17-44.54-0.27-66.8c1.78-1.05,3.74-1.2,5.75-1.19c4.64,0.02,9.27-0.01,13.91-0.02
		c2.32,0,4.54-0.37,4.56-3.29c0.02-4.1,0.8-8.22-0.29-12.3c0.5-1.03,0.5-2.05-0.01-3.08c0.99-8.05,0.97-16.09-0.02-24.14
		c0.63-1.32,0.63-2.65,0.02-3.98c0.9-7.35,0.98-14.7-0.04-22.04c0.54-0.99,0.54-1.97,0-2.96c2.04-10.3,1.11-11.44-9.05-11.4
		c-13.84,0.05-27.67,0.05-41.51,0.05c-12,0-24.02,0.21-36.01-0.15c-5.21-0.16-7.04,1.73-6.37,6.64c0.09,0.65,0,1.33,0,2
		c-0.13,140.19-0.29,280.39-0.32,420.58c0,16.86-3.16,13.11,13.33,18.62c7.78,2.6,15.7,5.41,24.15,5.44
		c0.68,0.11,1.36,0.22,2.04,0.33c2.36,1.81,5.04,2.34,7.95,1.97c0.66,0.07,1.33,0.14,1.99,0.22c4.23,1.64,8.51,2.94,13.14,2.29
		c1.29,0.56,2.59,0.92,3.96,0.27c2.71,1.93,5.72,2.47,8.96,1.99c1.62,0.64,3.29,0.83,5,0.41c2.03,1.33,4.4,1.49,6.68,1.81
		c6.23,0.88,6.66,0.49,6.7-5.66c0.05-9.16,0.03-18.32,0.01-27.48c-0.03-12.66-0.08-25.31-0.16-37.97c-0.04-6.79-0.09-6.84-7.05-6.91
		c-5-0.05-10-0.12-14.99,0.07c-3.36,0.13-4.74-0.98-4.72-4.54c0.11-28.98,0.13-57.96,0.02-86.93c-0.01-3.84,1.53-4.88,5.06-4.78
		c5.82,0.16,11.66-0.08,17.49-0.04c2.68,0.02,4.15-1.1,4.12-3.79c-0.05-4.31,0.66-8.64-0.46-12.91c0.48-0.98,0.51-1.97,0.05-2.96
		c0.77-2.35,0.68-4.7-0.04-7.05c0.63-1.65,0.65-3.31,0.01-4.96c0.7-1.62,0.72-3.24,0-4.85c0.56-1.45,0.64-2.91,0.1-4.38
		c1-7.61,0.93-15.21,0-22.82c-0.01-0.66-0.01-1.32-0.02-1.98C470.65,618.28,470.86,609.26,469.89,600.25z"/>
	<path class="st0" d="M688.82,323.72c-14.13-0.55-28.25-0.62-42.38,0.03c-15.06-0.56-30.12-0.92-45.17,0.18
		c-1.61-0.78-3.24-0.74-4.87-0.06c-0.73-0.68-1.47-0.67-2.2-0.01c-9.27-0.91-18.54-0.65-27.81-0.1c-5.14-0.14-10.28-0.38-15.43-0.39
		c-21.14-0.04-42.29-0.02-63.43,0.01c-1.81,0-3.62,0.27-5.42,0.42c-0.94-0.42-1.87-0.4-2.81,0.01c-1.02-0.63-2.04-0.62-3.06-0.01
		c-4.65-0.66-9.31-0.57-13.96,0.01c-3.73-0.73-7.46-0.68-11.19-0.04c-13.28-0.65-26.56-0.65-39.84,0
		c-17.04-0.66-34.08-0.72-51.11-0.04c-4.73-0.57-9.46-0.53-14.19-0.12c-7.11-2.53-10.08-7.54-9.47-15.05
		c0.34-4.14,0.05-8.33,0.07-12.5c0.04-10.35,3.33-13.69,13.79-13.75c18.68-0.09,37.36-0.14,56.03-0.13
		c91.73,0.02,183.46,0.06,275.18,0.09c14.4,0,17.06,2.75,16.82,17.37c-0.05,3-0.12,6,0.04,8.99
		C698.8,315.97,695.98,321.21,688.82,323.72z"/>
	<path class="st0" d="M517.25,263.88c-37.69,0-75.38,0.01-113.08,0c-11.32,0-14.73-3.5-14.75-14.97c-0.01-4.84-0.14-9.68,0.08-14.51
		c0.34-7.44,4.51-11.37,11.68-11.37c76.72,0.01,153.44,0.02,230.16,0.03c10.83,0,13.61,2.77,13.67,13.61
		c0.03,4.67,0.03,9.34-0.01,14.01c-0.09,10.15-3.09,13.18-13.17,13.18C593.64,263.89,555.45,263.87,517.25,263.88z"/>
</g>
</svg>
